# xmcd
#
# Track frame offsets:
#	150
#	21809
#	39477
#	58630
#	75826
#	95119
#	112993
#	130567
#	145322
#
# Disc length: 2156
#
# Revision: 2
# Processed by: cddbd v1.5.2PL0 Copyright (c) Steve Scherf et al.
# Submitted via: kJams Lite (Tryout) (development) 1.0patch47.24
#
DISCID=6a086a09
DTITLE=Various Artist - PHM0708
DYEAR=2007
DGENRE=Country
TTITLE0=Anderson, Keith - Sunday Morning In America
TTITLE1=Sugarland - Everyday America
TTITLE2=Bon Jovi - You Want To Make A Memory
TTITLE3=McEntire, Reba - Because Of You (Feat. Kelly Clarkson)
TTITLE4=Hill, Faith - Lost
TTITLE5=Wilson, Gretchen - One Of The Boys
TTITLE6=Rimes, LeAnn - Nothing Better To Do
TTITLE7=Nichols, Joe - Another Side Of You
TTITLE8=Cook, Elizabeth - Sometimes It Takes Balls To Be A Woman
EXTD=
EXTT0=
EXTT1=
EXTT2=
EXTT3=
EXTT4=
EXTT5=
EXTT6=
EXTT7=
EXTT8=
PLAYORDER=
